# xmcd
#
# Track frame offsets:
#	150
#	21171
#	39561
#	55151
#	79089
#	99557
#	117514
#	136546
#	161467
#	176783
#
# Disc length: 2681 seconds
#
# Revision: 1
# Processed by: cddbd v1.5.2PL0 Copyright (c) Steve Scherf et al.
# Submitted via: audiograbber 1.83.01
#
DISCID=7a0a770a
DTITLE=Tony Brower - Heaven On Earth
DYEAR=2003
DGENRE=Gospel
TTITLE0=Heaven On Earth
TTITLE1=She Doesn't Write Love Songs
TTITLE2=Runnin' Start
TTITLE3=I Guess I Should Have Cried
TTITLE4=Something Different About Today
TTITLE5=When He Made You
TTITLE6=I'd Still Serve Him
TTITLE7=My Father's Hand
TTITLE8=I Wrote It In Red
TTITLE9=Be With Me
EXTD=
EXTT0=
EXTT1=
EXTT2=
EXTT3=
EXTT4=
EXTT5=
EXTT6=
EXTT7=
EXTT8=
EXTT9=
PLAYORDER=
